<svg clip-rule="evenodd" fill-rule="evenodd" stroke-linejoin="round" stroke-miterlimit="2" viewBox="0 0 1863 572" xmlns="http://www.w3.org/2000/svg" xmlns:xlink="http://www.w3.org/1999/xlink"><linearGradient id="a"><stop offset="0" stop-color="#3a6d62"/><stop offset=".95" stop-color="#2c4949"/><stop offset="1" stop-color="#2c4949"/></linearGradient><linearGradient id="b" gradientTransform="matrix(1 0 0 -1 0 .100447)" gradientUnits="userSpaceOnUse" x1="0" x2="1" xlink:href="#a" y1="0" y2="0"/><linearGradient id="c" gradientTransform="matrix(1 0 0 -1 0 -.003475)" gradientUnits="userSpaceOnUse" x1="0" x2="1" xlink:href="#a" y1="0" y2="0"/><linearGradient id="d" gradientTransform="matrix(-.268287 -.963339 -.963339 .268287 .634136 .481664)" gradientUnits="userSpaceOnUse" x1="0" x2="1" xlink:href="#a" y1="0" y2="0"/><path d="m0 13.784c1.387 0 2.283-.816 2.283-2.12 0-1.184-.896-2.162-2.283-2.162h-3.629v4.282zm-.775-9.38c1.386 0 2.366-.938 2.366-2.284 0-1.264-.98-2.242-2.366-2.242h-2.854v4.526zm-8.808-9.746h9.869c4.077 0 7.34 3.018 7.34 6.85 0 2.284-.939 3.712-2.651 5.016v.082c2.529 1.794 3.588 3.508 3.588 6.036 0 3.384-2.69 6.484-7.339 6.484h-10.807z" fill="#1e2826" fill-rule="nonzero" transform="matrix(4.16667 0 0 4.16667 39.92708181 406.17206027)"/><path d="m0-3.264c1.345 0 2.242-1.386 2.242-2.814 0-1.426-1.06-2.692-2.407-2.692h-4.648v5.506zm-10.808-10.602h10.237c5.259 0 8.685 3.18 8.685 7.788 0 4.282-2.16 6.688-5.791 7.586l6.608 9.094h-7.504l-6.24-9.134v9.134h-5.995z" fill="#1e2826" fill-rule="nonzero" transform="matrix(4.16667 0 0 4.16667 166.64384985 441.68875535)"/><path d="m246.61891383 383.91370913h24.97918665v101.95008156h-24.97918665z" fill="#1e2826" stroke-width="4.16667"/><g fill-rule="nonzero"><path d="m0 13.54c3.834 0 6.77-2.692 6.77-6.812 0-3.792-2.569-6.768-6.77-6.768h-2.406v13.58zm-8.401-19.004h8.524c7.218 0 12.805 5.3 12.805 12.192 0 6.526-4.975 12.276-12.805 12.276h-8.524z" fill="#1e2826" transform="matrix(4.16667 0 0 4.16667 356.86900203 406.68039401)"/><path d="m0-26.101c4.527 0 7.667 1.672 10.236 4.282l-4.16 3.834c-1.672-1.51-3.751-2.448-6.076-2.448-4.364 0-7.177 3.262-7.177 7.382 0 4.526 3.221 7.383 7.299 7.383 4.282 0 6.362-2.367 6.524-4.733h-6.972v-5.178h13.458v2.324c0 7.218-4.242 13.255-13.132 13.255-7.748 0-13.254-5.75-13.254-13.051 0-7.3 5.506-13.05 13.254-13.05" fill="#1e2826" transform="matrix(4.16667 0 0 4.16667 503.63161944 489.26796008)"/><path d="m0-24.468h16.191v5.3h-10.196v4.406h9.422v5.22h-9.422v4.404h10.645v5.138h-16.64z" fill="#1e2826" transform="matrix(4.16667 0 0 4.16667 595.83585987 485.86379069)"/><path d="m0-13.868h-5.464v-5.3h17.047v5.3h-5.547v19.168h-6.036z" fill="#1e2826" transform="matrix(4.16667 0 0 4.16667 729.17763321 463.78043969)"/><path d="m0 14.765c4.322 0 7.095-3.265 7.095-7.382 0-4.12-2.773-7.383-7.095-7.383-4.364 0-7.096 3.263-7.096 7.383 0 4.117 2.732 7.382 7.096 7.382m0-20.433c7.707 0 13.172 5.75 13.172 13.051 0 7.3-5.465 13.05-13.172 13.05-7.749 0-13.173-5.75-13.173-13.05 0-7.301 5.424-13.051 13.173-13.051" fill="#1e2826" transform="matrix(4.16667 0 0 4.16667 872.05274751 404.13039197)"/><path d="m0-25.284h6.28l4.936 11.54 2.976-7.666 1.491-3.874h3.159l1.647 3.872 3.246 7.628 4.486-11.5h6.24l-10.195 25.284h-.817l-6.036-14.11-5.83 14.11h-.775z" fill="#1e2826" transform="matrix(4.16667 0 0 4.16667 960.22781805 489.26379341)"/><path d="m0-24.468h6.322l9.503 14.518v-14.518h5.954v24.468h-6.24l-9.544-14.558v14.558h-5.995z" fill="#1e2826" transform="matrix(4.16667 0 0 4.16667 1145.57796633 485.86379069)"/><path d="m0 29.41c-72.335-95.577-179.131-84.959-222.588-3.629-4.785 8.957.77 14.85 3.479 14.204 4.811-1.147 21.183-7.671 26.143-9.667 2.072-.833 3.759-4.816 5.591-8.441 37.304-73.833 86.983-82.001 158.215 73.7-3.447-17.74 3.705-37.688 26.886-58.34 2.668-2.377 4.863-4.406 2.274-7.827" fill="#3a6d62" transform="matrix(4.16667 0 0 4.16667 1497.34908108 161.5426979)"/><path d="m-12.21-30.272c-16.155 7.442-32.126 11.637-34.609 1.182-1.404 10.121 37.139 28.755 34.609 50.71-.119 1.034 1.497 1.294 1.936.35 8.787-18.92 3.324-45.012-1.936-52.242" fill="#3a6d62" transform="matrix(1.04046333237 -4.0346698944 -4.0346698944 -1.04046333237 505.06495392 111.25932434)"/><path d="m0-88.196c1.54 0 2.104 2.297.603 2.646-30.856 7.18-44.416 37.243-45.162 53.989-.248 5.555-5.014 6.536-10.525 9.088-6.148 2.848-34.94 15.161-45.862 19.069-5.347 1.914-13.26 3.407-13.63-4.847-1.476-32.886 33.055-79.948 114.576-79.945" fill="#3a6d62" transform="matrix(4.16667 0 0 4.16667 1856.00770134 579.5013656)"/><path d="m.982.451c-.013.046-.055.059-.067.038-.007-.014-.011-.028.007-.082.142-.437.023-.816-.922-.471.038-.038.068-.097.081-.17.369-.117.636-.063.787.088.138.138.179.356.114.597z" fill="url(#b)" transform="matrix(-528.23375592 -528.23375592 -528.23375592 528.23375592 1330.60728102 549.25967474)"/><path d="m1-.813c-.011.468-.223 1.308-.956 1.634-.028.012-.058-.023-.037-.046.264-.296.44-.748.422-1.045 0-.01-.002-.018.007-.022.174-.081.392-.262.533-.529.008-.016.031-.01.031.007z" fill="url(#c)" transform="matrix(0 -204.188496684 -204.188496684 0 1630.19502069 430.35124628)"/><path d="m.489-.516c.032.172.326.454.561.627-.166.042-.415.058-.561-.03-.015.071-.181.343-.337.535.165-.31.286-1.04.337-1.132z" fill="url(#d)" transform="matrix(127.186768416 -35.4211950036 -35.4211950036 -127.186768416 471.18159348 254.63860571)"/></g></svg>